<svg width="160.5" height="104.25" viewBox="0 0 856 556" 
        fill="none" xmlns="http://www.w3.org/2000/svg" xmlns:xlink="http://www.w3.org/1999/xlink" version="1.1">
        <defs>
            





        </defs>
        
            <g transform="translate(0, 0)">
                <svg width="256" height="256" title="PowerShell" viewBox="0 0 256 256" fill="none" xmlns="http://www.w3.org/2000/svg" id="powershell">
<style>
#powershell {
    rect {fill: #15191C}

    @media (prefers-color-scheme: light) {
        rect {fill: #F4F2ED}
    }
}
</style>
<rect width="256" height="256" rx="64" fill="#15191C"/>
<path fill-rule="evenodd" clip-rule="evenodd" d="M142.778 64.0265C161.889 64.0198 181.001 63.9617 200.112 64.0423C211.474 64.0888 214.677 67.8851 212.228 79.1055C205.055 111.966 197.722 144.793 190.29 177.596C187.939 187.965 182.539 192.212 171.632 192.244C133.409 192.358 95.1857 192.37 56.9634 192.239C44.4698 192.195 41.1834 187.964 43.8751 176.124C51.1788 143.968 58.5214 111.823 65.923 79.6901C68.7427 67.4449 72.98 64.083 85.442 64.0473C104.554 63.9933 123.666 64.0331 142.778 64.0265Z" fill="#E0EAF5"/>
<path fill-rule="evenodd" clip-rule="evenodd" d="M113.897 188.423C94.7829 188.416 75.6684 188.504 56.5556 188.379C46.8634 188.316 45.101 186.029 47.2828 176.549C54.6794 144.399 62.3144 112.304 69.5466 80.1179C71.4859 71.4854 75.6692 67.67 84.9179 67.7555C123.142 68.1102 161.372 67.8693 199.599 67.9084C209.186 67.9175 210.795 69.968 208.643 79.691C201.656 111.257 194.625 142.813 187.47 174.341C184.792 186.141 181.708 188.392 169.294 188.42C150.828 188.459 132.362 188.43 113.897 188.423Z" fill="#2671BE"/>
<path fill-rule="evenodd" clip-rule="evenodd" d="M130.161 125.418C128.879 123.915 127.472 122.184 125.982 120.529C117.533 111.145 109.159 101.69 100.56 92.4453C96.6249 88.2146 95.3709 84.106 100.097 79.9302C104.767 75.8025 109.355 76.1679 113.639 80.9168C125.569 94.1379 137.486 107.374 149.614 120.413C154.142 125.283 153.087 128.595 148.1 132.203C128.957 146.059 109.922 160.065 90.9085 174.097C86.6346 177.252 82.56 178.042 79.1076 173.382C75.2988 168.242 78.8227 165.184 82.7735 162.307C96.9032 152.015 111.005 141.685 125.047 131.274C127.003 129.824 129.811 128.978 130.161 125.418Z" fill="#FDFDFE"/>
<path fill-rule="evenodd" clip-rule="evenodd" d="M136.213 175.14C131.067 175.14 125.913 175.317 120.779 175.083C116.683 174.898 114.218 172.609 114.269 168.294C114.319 164.215 116.376 161.148 120.468 161.037C131.715 160.736 142.978 160.801 154.229 161.021C157.805 161.09 160.444 163.42 160.422 167.146C160.397 171.42 158.148 174.731 153.571 175.007C147.803 175.356 142.001 175.093 136.213 175.093C136.213 175.107 136.213 175.124 136.213 175.14Z" fill="#FCFDFD"/>
</svg>
            </g>

            <g transform="translate(300, 0)">
                <svg width="256" height="256" title="Bash" viewBox="0 0 256 256" fill="none" xmlns="http://www.w3.org/2000/svg">
<rect width="256" height="256" rx="64" fill="#4EAA25"/>
<path d="M192.557 77L138.436 44.8714C135.207 42.9571 131.607 42 128 42C124.393 42 120.793 42.9571 117.557 44.8786L63.4357 77C56.9786 80.8357 53 87.9214 53 95.5929V159.843C53 167.507 56.9786 174.6 63.4429 178.436L117.564 210.557C120.793 212.471 124.393 213.429 128 213.429C131.607 213.429 135.207 212.471 138.436 210.557L192.557 178.436C199.014 174.6 203 167.514 203 159.843V95.5929C203 87.9214 199.021 80.8357 192.557 77ZM150.643 177.329L150.736 181.943C150.743 182.5 150.379 183.136 149.943 183.357L147.207 184.929C146.771 185.15 146.414 184.879 146.407 184.321L146.357 179.786C144.014 180.757 141.643 180.993 140.129 180.386C139.843 180.271 139.721 179.85 139.836 179.371L140.829 175.2C140.907 174.871 141.086 174.543 141.321 174.336C141.407 174.257 141.493 174.193 141.579 174.15C141.736 174.071 141.886 174.05 142.021 174.107C143.657 174.657 145.743 174.4 147.75 173.386C150.3 172.093 152.007 169.493 151.979 166.907C151.957 164.564 150.686 163.586 147.6 163.564C143.671 163.571 140 162.8 139.943 157.014C139.893 152.25 142.371 147.293 146.293 144.157L146.243 139.5C146.236 138.929 146.586 138.3 147.036 138.071L149.679 136.386C150.114 136.164 150.471 136.436 150.479 137.007L150.521 141.671C152.471 140.893 154.171 140.686 155.707 141.043C156.043 141.129 156.186 141.586 156.05 142.121L155.021 146.25C154.943 146.564 154.764 146.879 154.557 147.079C154.471 147.164 154.379 147.229 154.286 147.279C154.15 147.35 154.014 147.371 153.879 147.343C153.179 147.186 151.507 146.821 148.886 148.15C146.136 149.543 145.171 151.936 145.193 153.707C145.214 155.829 146.3 156.471 150.057 156.536C155.057 156.621 157.221 158.807 157.271 163.843C157.321 168.764 154.686 174.079 150.643 177.329ZM179.021 169.564C179.021 169.993 178.964 170.393 178.607 170.6L164.921 178.914C164.564 179.121 164.279 178.943 164.279 178.514V174.986C164.279 174.557 164.543 174.321 164.9 174.114L178.379 166.05C178.736 165.843 179.021 166.021 179.021 166.45V169.564ZM188.421 90.55L137.221 122.171C130.836 125.907 126.129 130.093 126.129 137.793V200.886C126.129 205.493 127.986 208.479 130.843 209.343C129.907 209.507 128.957 209.621 128 209.621C125 209.621 122.05 208.807 119.45 207.264L65.3286 175.143C60.0357 172 56.75 166.136 56.75 159.843V95.5929C56.75 89.3 60.0357 83.4357 65.3286 80.2929L119.45 48.1643C122.043 46.6214 125 45.8071 128 45.8071C130.993 45.8071 133.95 46.6214 136.55 48.1643L190.671 80.2929C195.129 82.9429 198.143 87.5286 198.986 92.6643C197.186 88.8357 193.143 87.7929 188.421 90.55Z" fill="white"/>
</svg>
            </g>

            <g transform="translate(600, 0)">
                <svg width="256" height="256" title="Git Bash" viewBox="0 0 256 256" fill="none" xmlns="http://www.w3.org/2000/svg" id="gitbash">
<style>
#gitbash {
    rect {fill: #15191C}

    @media (prefers-color-scheme: light) {
        rect {fill: #F4F2ED}
    }
}
</style>
<rect width="256" height="256" rx="64" fill="#15191C"/>
<path d="M122.936 104.503V120.433L84.6462 82.2252L97.3628 69.5315L116.679 88.8259C116.161 90.2189 115.898 91.6938 115.904 93.1798C115.896 95.535 116.552 97.8449 117.795 99.8467C119.038 101.848 120.819 103.462 122.936 104.503ZM134.673 106.8L140.625 112.741L134.673 118.694V106.8ZM171.094 82.3521L148.089 105.29L140.345 97.5845C141.051 95.693 141.286 93.6589 141.032 91.6565C140.644 88.7171 139.237 86.0059 137.056 83.9934C134.875 81.9809 132.057 80.7939 129.091 80.6385C127.407 80.55 125.723 80.8093 124.144 81.4001L104.815 62.0422L121.194 45.7436C122.063 44.8739 123.096 44.1839 124.233 43.7131C125.369 43.2423 126.588 43 127.819 43C129.05 43 130.269 43.2423 131.405 43.7131C132.542 44.1839 133.575 44.8739 134.444 45.7436L171.094 82.3521Z" fill="#FF8080"/>
<path d="M115.331 135.069L80.5388 169.799L46.0133 135.665C44.0602 133.638 42.9789 130.928 43.0003 128.115C43.0217 125.302 44.1441 122.609 46.1277 120.611L81.7341 85.0685L115.331 118.719C117.499 120.89 118.717 123.829 118.717 126.894C118.717 129.959 117.499 132.899 115.331 135.069Z" fill="#80B3FF"/>
<path d="M134.737 139.207V153.792C136.856 155.05 138.536 156.928 139.551 159.171C140.565 161.415 140.865 163.915 140.408 166.333C139.99 168.693 138.864 170.87 137.18 172.577C135.495 174.284 133.33 175.44 130.973 175.892C128.113 176.515 125.123 176.078 122.562 174.661C120.002 173.244 118.046 170.944 117.061 168.192C116.076 165.44 116.129 162.424 117.211 159.708C118.292 156.993 120.327 154.763 122.936 153.437V137.316C122.914 137.086 122.831 136.867 122.694 136.681C122.557 136.496 122.372 136.351 122.159 136.262C121.946 136.174 121.713 136.144 121.485 136.178C121.256 136.211 121.041 136.306 120.863 136.452L84.4046 172.832L121.919 210.279C123.666 212.021 126.035 213 128.506 213C130.976 213 133.345 212.021 135.093 210.279L170.483 175.016L134.737 139.207Z" fill="#FFE680"/>
<path d="M209.18 137.506L175.43 171.208L139.086 134.929C137.047 132.892 135.901 130.13 135.901 127.25C135.901 124.37 137.047 121.607 139.086 119.57L143.27 115.356L152.54 124.584C151.546 127.277 151.504 130.229 152.42 132.949C153.337 135.67 155.157 137.996 157.579 139.543C160.001 141.09 162.88 141.764 165.739 141.455C168.597 141.145 171.264 139.87 173.297 137.84C175.331 135.81 176.608 133.148 176.919 130.295C177.229 127.441 176.553 124.568 175.004 122.15C173.454 119.732 171.123 117.915 168.398 117.001C165.672 116.086 162.716 116.128 160.017 117.12L150.798 107.93L174.374 84.4085L209.18 119.164C210.39 120.366 211.351 121.795 212.007 123.369C212.662 124.943 213 126.63 213 128.335C213 130.039 212.662 131.727 212.007 133.301C211.351 134.875 210.39 136.304 209.18 137.506Z" fill="#8DD35F"/>
</svg>
            </g>

            <g transform="translate(0, 300)">
                <svg width="256" height="256" title="C" viewBox="0 0 256 256" fill="none" xmlns="http://www.w3.org/2000/svg">
<rect width="256" height="256" rx="64" fill="#394AAB"/>
<path d="M133.368 48C163.098 48 189.056 64.1465 202.959 88.1465L202.823 87.9155L167.843 108.056C160.952 96.3876 148.317 88.5129 133.824 88.3507L133.368 88.3482C111.266 88.3482 93.3482 106.265 93.3482 128.366C93.3482 135.594 95.2751 142.37 98.6262 148.221C105.525 160.264 118.492 168.387 133.368 168.387C148.335 168.387 161.377 160.161 168.24 147.99L168.073 148.281L203 168.515C189.25 192.313 163.648 208.409 134.263 208.729L133.368 208.735C103.543 208.735 77.5123 192.489 63.644 168.361C56.8738 156.583 53 142.928 53 128.366C53 83.982 88.9811 48 133.368 48Z" fill="white"/>
</svg>
            </g>

            <g transform="translate(300, 300)">
                <svg width="256" height="256" title="Go" viewBox="0 0 256 256" fill="none" xmlns="http://www.w3.org/2000/svg">
<rect width="256" height="256" rx="64" fill="#00ADD8"/>
<path d="M54.2054 114.792C53.8627 114.792 53.7825 114.625 53.9502 114.362L55.7439 112.065C55.9116 111.81 56.3346 111.642 56.6773 111.642H87.0979C87.4333 111.642 87.5208 111.898 87.3531 112.153L85.9021 114.362C85.7344 114.625 85.3042 114.873 85.049 114.873L54.2054 114.792ZM41.343 122.631C41.0003 122.631 40.9128 122.463 41.0878 122.208L42.8742 119.904C43.0419 119.649 43.4721 119.481 43.8148 119.481H82.6646C83.0073 119.481 83.175 119.736 83.0875 119.991L82.4094 122.033C82.3219 122.376 81.9865 122.543 81.6438 122.543L41.343 122.631ZM61.9637 130.469C61.621 130.469 61.5335 130.214 61.7085 129.959L62.897 127.83C63.0647 127.575 63.4074 127.319 63.7501 127.319H80.7907C81.1334 127.319 81.3011 127.575 81.3011 127.917L81.1334 129.959C81.1334 130.302 80.7907 130.557 80.5355 130.557L61.9637 130.469ZM150.404 113.261C145.037 114.625 141.369 115.646 136.09 117.009C134.807 117.345 134.727 117.432 133.611 116.156C132.342 114.705 131.402 113.772 129.615 112.919C124.241 110.279 119.043 111.045 114.194 114.195C108.397 117.942 105.414 123.484 105.502 130.382C105.582 137.2 110.271 142.821 117.001 143.762C122.798 144.528 127.647 142.486 131.489 138.148C132.255 137.2 132.933 136.179 133.786 134.983H117.344C115.557 134.983 115.127 133.875 115.725 132.431C116.833 129.791 118.875 125.358 120.071 123.141C120.253 122.731 120.552 122.383 120.931 122.14C121.309 121.898 121.75 121.772 122.2 121.778H153.211C153.043 124.082 153.043 126.379 152.701 128.683C151.818 134.749 149.415 140.493 145.715 145.381C139.583 153.475 131.57 158.506 121.434 159.862C113.085 160.97 105.327 159.352 98.5166 154.247C92.2094 149.471 88.6292 143.164 87.6958 135.326C86.5875 126.036 89.3146 117.687 94.9364 110.359C100.988 102.44 108.995 97.4092 118.795 95.6301C126.801 94.1718 134.472 95.1197 141.369 99.7936C145.89 102.783 149.12 106.866 151.257 111.81C151.767 112.576 151.425 113.006 150.404 113.269M178.608 160.38C170.85 160.205 163.777 157.988 157.812 152.877C152.85 148.695 149.579 142.85 148.61 136.434C147.079 126.809 149.718 118.285 155.515 110.702C161.735 102.521 169.231 98.2624 179.373 96.4832C188.065 94.952 196.246 95.7905 203.655 100.822C210.385 105.415 214.563 111.642 215.671 119.816C217.115 131.323 213.797 140.692 205.871 148.706C200.249 154.415 193.344 157.988 185.418 159.607C183.121 160.044 180.824 160.117 178.608 160.38ZM198.879 125.963C198.798 124.848 198.798 123.995 198.631 123.141C197.099 114.705 189.341 109.944 181.247 111.81C173.321 113.597 168.21 118.628 166.336 126.634C164.805 133.284 168.042 140.014 174.175 142.749C178.863 144.79 183.544 144.528 188.065 142.238C194.795 138.738 198.456 133.284 198.886 125.956L198.879 125.963Z" fill="white"/>
</svg>
            </g>

            <g transform="translate(600, 300)">
                <svg width="256" height="256" title="C++" viewBox="0 0 256 256" fill="none" xmlns="http://www.w3.org/2000/svg">
<rect width="256" height="256" rx="64" fill="#00599C"/>
<path d="M111.621 206.241C68.2691 206.241 33 170.972 33 127.621C33 84.2691 68.2691 49 111.621 49C139.594 49 165.684 64.0535 179.706 88.2856L145.68 107.975C138.663 95.8455 125.611 88.3103 111.621 88.3103C89.9445 88.3103 72.3103 105.945 72.3103 127.621C72.3103 149.296 89.9445 166.931 111.621 166.931C125.612 166.931 138.664 159.396 145.682 147.264L179.707 166.953C165.685 191.187 139.596 206.241 111.621 206.241Z" fill="white"/>
<path d="M190.241 123.253H181.505V114.517H172.771V123.253H164.034V131.988H172.771V140.724H181.505V131.988H190.241V123.253Z" fill="white"/>
<path d="M223 123.253H214.264V114.517H205.529V123.253H196.793V131.988H205.529V140.724H214.264V131.988H223V123.253Z" fill="white"/>
</svg>
            </g>
    </svg>