<svg width="160.5" height="104.25" viewBox="0 0 856 556" 
        fill="none" xmlns="http://www.w3.org/2000/svg" xmlns:xlink="http://www.w3.org/1999/xlink" version="1.1">
        <defs>
            



<linearGradient id="icon_4_linearGradient1" x1="128.32" y1="52.7936" x2="128.178" y2="203" gradientUnits="userSpaceOnUse">
<stop stop-color="#AFCCFB"/>
<stop offset="1" stop-color="#8BB5F8"/>
</linearGradient>
<linearGradient id="icon_4_linearGradient2" x1="115.442" y1="54.8283" x2="129.136" y2="215.531" gradientUnits="userSpaceOnUse">
<stop stop-color="#1972E7"/>
<stop offset="1" stop-color="#1969D5"/>
</linearGradient>
<linearGradient id="icon_4_linearGradient3" x1="128" y1="53" x2="128" y2="203" gradientUnits="userSpaceOnUse">
<stop stop-color="#659CF6"/>
<stop offset="1" stop-color="#4285F4"/>
</linearGradient>
<linearGradient id="icon_4_linearGradient4" x1="127.689" y1="97.6474" x2="128" y2="158.47" gradientUnits="userSpaceOnUse">
<stop stop-color="#3680F0"/>
<stop offset="1" stop-color="#2678EC"/>
</linearGradient>

        </defs>
        
            <g transform="translate(0, 0)">
                <svg width="256" height="256" title="CSS" viewBox="0 0 256 256" fill="none" xmlns="http://www.w3.org/2000/svg">
<rect width="256" height="256" rx="64" fill="#663399"/>
<path d="M106.456 231.979C92.4677 231.966 83.8368 224.059 84.0023 209.51V172.701C84.0023 165.326 86.1541 159.717 90.4576 155.878C98.1869 148.405 116.119 147.95 123.69 155.992C128.355 160.121 130.115 168.557 129.696 176.428H113.641C113.763 173.335 113.6 168.651 111.788 166.887C109.433 163.689 103.216 164.065 101.571 167.394C100.561 169.199 100.055 171.873 100.055 175.409V207.363C100.055 214.063 102.375 217.451 107.016 217.526C109.185 217.526 110.834 216.734 111.955 215.154C113.521 213.278 113.765 209.125 113.639 206.122H129.694C130.792 221.439 121.784 232.169 106.454 231.979H106.456ZM157.427 231.979C141.927 232.193 134.993 221.124 135.422 206.122H150.578C150.158 212.662 152.396 218.619 157.763 218.203C160.156 218.203 161.842 217.451 162.815 215.945C164.667 213.193 165.013 205.245 162.367 202.17C160.518 199.208 153.866 196.593 150.354 194.831C145.338 192.423 141.727 189.563 139.519 186.249C134.538 178.896 134.999 162.755 141.988 156.215C148.779 148.144 166.513 147.773 173.311 156.047C177.503 160.311 179.335 168.703 178.98 176.426H164.383C164.508 173.252 164.209 168.13 162.981 166.264C162.121 164.683 160.492 163.892 158.098 163.892C153.832 163.892 151.699 166.452 151.699 171.569C151.745 177.003 153.856 179.233 158.773 181.504C165.141 183.987 173.239 188.228 176.174 193.36C184.929 208.998 178.923 232.886 157.425 231.975L157.427 231.979ZM206.377 231.979C190.877 232.193 183.943 221.124 184.372 206.122H199.528C199.107 212.662 201.346 218.619 206.713 218.203C209.106 218.203 210.792 217.451 211.765 215.945C213.616 213.193 213.963 205.245 211.317 202.17C209.468 199.208 202.816 196.593 199.303 194.831C194.288 192.423 190.677 189.563 188.469 186.249C183.488 178.896 183.949 162.755 190.938 156.215C197.729 148.144 215.463 147.773 222.26 156.047C226.453 160.311 228.284 168.703 227.929 176.426H213.333C213.458 173.252 213.159 168.13 211.931 166.264C211.071 164.683 209.441 163.892 207.048 163.892C202.782 163.892 200.649 166.452 200.649 171.569C200.695 177.003 202.806 179.233 207.723 181.504C214.091 183.987 222.189 188.228 225.124 193.36C233.879 208.998 227.873 232.886 206.375 231.975L206.377 231.979Z" fill="white"/>
</svg>
            </g>

            <g transform="translate(300, 0)">
                <svg width="256" height="256" title="HTML" viewBox="0 0 256 256" fill="none" xmlns="http://www.w3.org/2000/svg">
<rect width="256" height="256" rx="64" fill="#E34F26"/>
<path d="M53 42H203L189.357 196.021L127.836 213.429L66.6643 196.014L53 42ZM103.221 111.643L101.564 92.2286L173.414 92.25L175.057 73.5214L80.9429 73.5L85.9286 130.714H151.114L148.786 155.186L128 160.929L106.893 155.143L105.55 140.071H86.9143L89.2714 169.864L128 180.221L166.421 169.914L171.736 111.65H103.221V111.643Z" fill="white"/>
</svg>
            </g>

            <g transform="translate(600, 0)">
                <svg width="256" height="256" title="JavaScript" viewBox="0 0 256 256" fill="none" xmlns="http://www.w3.org/2000/svg">
<rect width="256" height="256" rx="64" fill="#F7DF1E"/>
<path d="M67.3117 213.932L86.9027 202.076C90.6821 208.777 94.1202 214.447 102.367 214.447C110.272 214.447 115.256 211.355 115.256 199.327V117.529H139.314V199.667C139.314 224.584 124.708 235.926 103.398 235.926C84.1533 235.926 72.9819 225.959 67.3113 213.93" fill="black"/>
<path d="M152.381 211.354L171.969 200.013C177.126 208.434 183.828 214.62 195.684 214.62C205.653 214.62 212.009 209.636 212.009 202.762C212.009 194.514 205.479 191.592 194.481 186.782L188.468 184.203C171.111 176.815 159.597 167.535 159.597 147.945C159.597 129.901 173.345 116.153 194.826 116.153C210.12 116.153 221.118 121.481 229.022 135.4L210.291 147.429C206.166 140.04 201.7 137.119 194.826 137.119C187.78 137.119 183.312 141.587 183.312 147.429C183.312 154.646 187.78 157.568 198.09 162.037L204.104 164.614C224.553 173.379 236.067 182.313 236.067 202.418C236.067 224.072 219.055 235.928 196.2 235.928C173.861 235.928 159.426 225.274 152.381 211.354" fill="black"/>
</svg>
            </g>

            <g transform="translate(0, 300)">
                <svg width="256" height="256" title="Markdown" viewBox="0 0 256 256" fill="none" xmlns="http://www.w3.org/2000/svg" id="markdown">
<style>
#markdown {
    rect {fill: #15191C}
    path {fill: #F4F2ED}

    @media (prefers-color-scheme: light) {
        rect {fill: #F4F2ED}
        path {fill: #15191C}
    }
}
</style>
<rect width="256" height="256" rx="64" fill="#15191C"/>
<path d="M200.744 180.615H55.2588C48.4985 180.615 43 175.117 43 168.357V88.2588C43 81.4985 48.4985 76 55.2588 76H200.741C207.501 76 213 81.4985 213 88.2588V168.357C213.003 175.117 207.504 180.615 200.744 180.615ZM83.867 156.098V124.222L100.214 144.655L116.561 124.222V156.098H132.907V100.518H116.561L100.214 120.95L83.867 100.518H67.5202V156.095H83.867V156.098ZM193.386 128.308H177.039V100.518H160.692V128.308H144.345L168.866 156.913L193.386 128.308Z" fill="#F4F2ED"/>
</svg>
            </g>

            <g transform="translate(300, 300)">
                <svg width="256" height="256" title="Chromium" viewBox="0 0 256 256" fill="none" xmlns="http://www.w3.org/2000/svg" id="chromium">
<style>
#chromium {
    rect {fill: #15191C}

    @media (prefers-color-scheme: light) {
        rect {fill: #F4F2ED}
    }
}
</style>
<rect width="256" height="256" rx="64" fill="#15191C"/>
<path d="M128 128.001L160.477 146.75L128 203C169.422 203 203 169.422 203 128.001C203 114.336 199.327 101.535 192.942 90.5003H127.999L128 128.001Z" fill="url(#icon_4_linearGradient1)"/>
<path d="M127.999 53C100.24 53 76.0212 68.0922 63.0527 90.5091L95.5228 146.75L127.999 128.001L127.999 90.5003H192.942C179.971 68.0889 155.756 53 127.999 53Z" fill="url(#icon_4_linearGradient2)"/>
<path d="M53.0004 128.001C53.0004 169.422 86.5778 203 128 203L160.477 146.75L128 128.001L95.5235 146.75L63.0535 90.5091C56.6714 101.541 53 114.337 53 127.999" fill="url(#icon_4_linearGradient3)"/>
<path d="M165.501 128.001C165.501 148.711 148.711 165.501 128 165.501C107.29 165.501 90.4998 148.711 90.4998 128.001C90.4998 107.29 107.29 90.5003 128 90.5003C148.711 90.5003 165.501 107.29 165.501 128.001Z" fill="white"/>
<path d="M158.469 128.001C158.469 144.828 144.828 158.47 128 158.47C111.173 158.47 97.531 144.828 97.531 128.001C97.531 111.173 111.173 97.5315 128 97.5315C144.828 97.5315 158.469 111.173 158.469 128.001Z" fill="url(#icon_4_linearGradient4)"/>




</svg>
            </g>

            <g transform="translate(600, 300)">
                <svg width="256" height="256" title="TypeScript" viewBox="0 0 256 256" fill="none" xmlns="http://www.w3.org/2000/svg">
<rect width="256" height="256" rx="64" fill="#3178C6"/>
<path d="M56.6112 128.849L56.5299 139.333H73.1902H89.8505L89.8505 186.673V234.012H101.635H113.419V186.673L113.419 139.333H130.079H146.739V129.052C146.739 123.363 146.618 118.609 146.455 118.487C146.333 118.325 126.056 118.243 101.472 118.284L56.7331 118.406L56.6112 128.849Z" fill="white"/>
<path d="M206.567 118.108C213.068 119.734 218.026 122.619 222.577 127.332C224.934 129.852 228.428 134.444 228.713 135.541C228.794 135.866 217.66 143.343 210.915 147.528C210.671 147.691 209.695 146.634 208.598 145.009C205.307 140.214 201.853 138.141 196.57 137.776C188.809 137.247 183.811 141.311 183.852 148.097C183.852 150.088 184.136 151.266 184.949 152.892C186.655 156.427 189.825 158.54 199.781 162.847C218.107 170.731 225.949 175.932 230.826 183.327C236.271 191.576 237.49 204.742 233.792 214.535C229.729 225.181 219.651 232.414 205.469 234.812C201.081 235.584 190.678 235.462 185.965 234.609C175.684 232.78 165.932 227.701 159.918 221.037C157.561 218.436 152.969 211.65 153.254 211.162C153.375 211 154.432 210.35 155.61 209.659C156.748 209.009 161.056 206.53 165.119 204.173L172.474 199.906L174.018 202.182C176.172 205.473 180.885 209.984 183.73 211.487C191.897 215.795 203.113 215.185 208.639 210.228C210.996 208.074 211.971 205.839 211.971 202.548C211.971 199.581 211.605 198.281 210.061 196.046C208.07 193.202 204.007 190.804 192.466 185.806C179.26 180.117 173.571 176.582 168.37 170.974C165.363 167.724 162.518 162.522 161.34 158.174C160.365 154.558 160.121 145.496 160.893 141.839C163.615 129.08 173.246 120.181 187.143 117.539C191.654 116.686 202.137 117.011 206.567 118.108Z" fill="white"/>
</svg>
            </g>
    </svg>